<svg width="1039" height="262" viewBox="0 0 1039 262" fill="none" xmlns="http://www.w3.org/2000/svg">
<path d="M156.011 71.1135H142.042C139.113 71.1135 136.75 73.4036 136.75 76.212V194.236C136.75 197.057 139.125 199.335 142.042 199.335H156.011C158.94 199.335 161.303 197.045 161.303 194.236V76.224C161.303 73.3916 158.928 71.1135 156.011 71.1135Z" fill="url(#paint0_linear_2808_2357)"/>
<path d="M19.4009 126.184H5.43133C2.50241 126.184 0.139999 128.474 0.139999 131.283V194.236C0.139999 197.057 2.51447 199.335 5.43133 199.335H19.4009C22.3298 199.335 24.6922 197.045 24.6922 194.236V131.295C24.6922 128.474 22.3298 126.184 19.4009 126.184Z" fill="url(#paint1_linear_2808_2357)"/>
<path d="M121.853 32.447H107.883C104.954 32.447 102.592 34.7371 102.592 37.5455V174.204C102.592 177.024 104.966 179.302 107.883 179.302H121.853C124.781 179.302 127.144 177.012 127.144 174.204V37.5455C127.144 34.7371 124.781 32.447 121.853 32.447Z" fill="url(#paint2_linear_2808_2357)"/>
<path d="M53.8247 25.4563H39.8551C36.9382 25.4563 34.5638 27.7464 34.5638 30.5548V167.213C34.5638 170.034 36.9382 172.312 39.8551 172.312H53.8247C56.7415 172.312 59.116 170.022 59.116 167.213V30.5548C59.116 27.7464 56.7536 25.4563 53.8247 25.4563Z" fill="url(#paint3_linear_2808_2357)"/>
<path d="M87.706 0H73.7365C70.8196 0 68.4451 2.29007 68.4451 5.09845V163.163C68.4451 165.984 70.8196 168.262 73.7365 168.262H87.706C90.6229 168.262 92.9974 165.972 92.9974 163.163V5.09845C92.9974 2.27802 90.6229 0 87.706 0Z" fill="url(#paint4_linear_2808_2357)"/>
<path d="M197.233 111.25C197.233 96.8346 197.39 81.7923 197.703 66.1111C198.016 50.4421 198.257 40.2572 198.414 35.5564C198.414 34.3029 198.92 33.2061 199.945 32.2659C200.969 31.3258 202.102 30.8557 203.356 30.8557H215.819C217.072 30.8557 218.169 31.3258 219.109 32.2659C220.05 33.2061 220.52 34.3029 220.52 35.5564L220.761 99.4984C220.761 99.8117 220.917 100.053 221.231 100.209C221.544 100.366 221.858 100.294 222.171 99.9684C225.461 95.581 230.355 91.941 236.864 89.0362C243.36 86.1434 249.676 84.685 255.787 84.685C266.285 84.685 275.964 87.3126 284.811 92.5557C293.658 97.8109 300.673 104.862 305.856 113.709C311.027 122.568 313.618 132.247 313.618 142.745C313.618 153.243 311.039 162.958 305.856 171.889C300.685 180.821 293.67 187.872 284.811 193.043C275.952 198.214 266.273 200.805 255.787 200.805C245.59 200.805 236.153 198.334 227.462 193.404C218.76 188.475 211.793 181.809 206.538 173.42C201.283 165.043 198.426 155.75 197.956 145.565C197.474 137.116 197.233 125.678 197.233 111.25ZM238.37 112.781C233.043 115.83 228.848 120.025 225.799 125.352C222.737 130.68 221.219 136.477 221.219 142.745C221.219 149.013 222.786 154.774 225.919 160.017C229.053 165.272 233.248 169.455 238.491 172.589C243.734 175.722 249.495 177.289 255.775 177.289C261.886 177.289 267.563 175.722 272.818 172.589C278.061 169.455 282.256 165.26 285.39 160.017C288.523 154.774 290.09 149.013 290.09 142.745C290.09 136.477 288.523 130.716 285.39 125.461C282.256 120.218 278.061 116.023 272.818 112.889C267.563 109.756 261.814 108.189 255.546 108.189C249.423 108.201 243.698 109.719 238.37 112.781Z" fill="#292756"/>
<path d="M433.474 138.984C433.318 142.118 431.835 144.866 429.003 147.217C426.182 149.567 423.048 150.748 419.601 150.748H347.668C347.041 150.748 346.499 150.977 346.029 151.447C345.559 151.918 345.402 152.544 345.559 153.328C347.596 161.789 351.863 168.057 358.371 172.131C364.868 176.205 372.51 178.242 381.284 178.242C385.828 178.242 390.65 177.217 395.736 175.18C400.822 173.143 405.258 170.407 409.019 166.96C409.802 166.176 410.815 165.779 412.068 165.779C413.478 165.779 414.491 166.176 415.13 166.96L424.531 176.132C425.471 176.759 425.941 177.772 425.941 179.182C425.941 180.435 425.471 181.532 424.531 182.472C412.152 194.694 397.58 200.805 380.814 200.805C369.846 200.805 359.854 198.226 350.838 193.043C341.822 187.872 334.735 180.857 329.564 171.998C324.394 163.151 321.802 153.231 321.802 142.263C321.802 138.502 321.959 135.598 322.272 133.561C323.526 123.689 326.901 115.071 332.385 107.707C337.869 100.342 344.799 94.6651 353.188 90.6635C361.565 86.6619 370.702 84.6731 380.573 84.6731C382.14 84.6731 384.49 84.8298 387.624 85.1431C396.086 86.0833 403.848 89.0966 410.899 94.1951C417.95 99.2815 423.506 105.441 427.593 112.648C431.666 119.856 433.703 126.835 433.703 133.573L433.474 138.984ZM359.311 112.431C353.116 117.446 349.163 123.484 347.439 130.535L347.198 131.246C347.198 131.873 347.439 132.428 347.909 132.886C348.379 133.356 348.934 133.597 349.548 133.597H409.959C410.742 133.597 411.369 133.283 411.839 132.657C412.309 132.03 412.381 131.319 412.068 130.535C409.874 123.328 406.343 117.253 401.485 112.323C396.628 107.381 389.89 104.922 381.272 104.922C372.835 104.91 365.507 107.417 359.311 112.431Z" fill="#292756"/>
<path d="M442.406 221.5C442.092 203.481 441.936 186.715 441.936 171.191C441.936 160.692 442.092 150.266 442.406 139.925C442.876 129.74 445.732 120.459 450.988 112.07C456.231 103.693 463.21 97.0277 471.912 92.0859C480.614 87.1562 490.052 84.6853 500.237 84.6853C510.735 84.6853 520.414 87.3129 529.273 92.556C538.12 97.8112 545.135 104.862 550.306 113.709C555.476 122.568 558.068 132.247 558.068 142.745C558.068 153.244 555.476 162.922 550.306 171.769C545.135 180.628 538.12 187.679 529.273 192.922C520.414 198.178 510.735 200.793 500.237 200.793C494.126 200.793 487.774 199.299 481.193 196.321C474.612 193.344 469.754 189.74 466.621 185.51C466.464 185.196 466.223 185.076 465.909 185.16C465.596 185.245 465.439 185.438 465.439 185.751L464.969 256.503C464.969 257.756 464.499 258.853 463.559 259.793C462.619 260.733 461.522 261.204 460.269 261.204H447.806C446.552 261.204 445.455 260.733 444.515 259.793C443.575 258.853 443.105 257.756 443.105 256.503C442.96 251.199 442.719 239.52 442.406 221.5ZM470.381 160.029C473.515 165.285 477.709 169.467 482.953 172.601C488.196 175.735 493.957 177.302 500.225 177.302C506.492 177.302 512.254 175.735 517.497 172.601C522.74 169.467 526.934 165.273 530.068 160.029C533.202 154.786 534.769 149.025 534.769 142.757C534.769 136.49 533.202 130.692 530.068 125.365C526.934 120.037 522.74 115.843 517.497 112.793C512.242 109.732 506.492 108.213 500.225 108.213C493.957 108.213 488.196 109.78 482.953 112.914C477.697 116.048 473.515 120.242 470.381 125.485C467.247 130.74 465.68 136.502 465.68 142.769C465.68 149.037 467.247 154.786 470.381 160.029Z" fill="#292756"/>
<path d="M587.682 25.4561C588.466 26.2396 588.864 27.1797 588.864 28.2766L589.575 65.8944V158.981L588.864 196.828C588.864 197.924 588.466 198.865 587.682 199.648C586.899 200.432 585.959 200.829 584.862 200.829H570.989C569.892 200.829 568.952 200.444 568.168 199.648C567.385 198.865 566.987 197.924 566.987 196.828L566.276 158.981V65.8944L566.987 28.2766C566.987 27.1797 567.373 26.2396 568.168 25.4561C568.952 24.6727 569.892 24.2749 570.989 24.2749H584.862C585.959 24.2749 586.899 24.6727 587.682 25.4561Z" fill="#292756"/>
<path d="M719.086 164.14C719.086 171.974 718.929 178.869 718.615 184.823C718.302 190.777 718.061 194.538 717.904 196.104C717.904 197.358 717.434 198.455 716.494 199.395C715.554 200.335 714.385 200.805 712.975 200.805H700.512C699.415 200.805 698.39 200.335 697.45 199.395C696.51 198.455 695.956 197.358 695.811 196.104L695.57 185.763C695.57 185.45 695.449 185.208 695.22 185.052C694.991 184.895 694.714 184.979 694.401 185.281C691.267 189.668 686.41 193.356 679.828 196.334C673.247 199.311 666.895 200.805 660.785 200.805C650.286 200.805 640.571 198.226 631.64 193.043C622.709 187.872 615.658 180.821 610.487 171.89C605.316 162.958 602.725 153.244 602.725 142.745C602.725 132.247 605.304 122.568 610.487 113.709C615.658 104.862 622.709 97.8112 631.64 92.556C640.571 87.3129 650.286 84.6853 660.785 84.6853C670.969 84.6853 680.371 87.1562 688.989 92.0859C697.607 97.0277 704.537 103.681 709.793 112.07C715.036 120.459 717.904 129.74 718.374 139.925C718.845 148.555 719.086 156.618 719.086 164.14ZM678.069 172.613C683.312 169.479 687.47 165.249 690.532 159.921C693.593 154.594 695.112 148.796 695.112 142.528C695.112 136.261 693.545 130.499 690.411 125.256C687.277 120.013 683.083 115.855 677.84 112.793C672.585 109.732 666.823 108.213 660.556 108.213C654.445 108.213 648.768 109.78 643.512 112.914C638.257 116.048 634.075 120.242 630.941 125.485C627.807 130.74 626.24 136.502 626.24 142.769C626.24 149.037 627.807 154.798 630.941 160.042C634.075 165.297 638.269 169.479 643.512 172.613C648.755 175.747 654.517 177.314 660.785 177.314C667.052 177.314 672.814 175.747 678.069 172.613Z" fill="#292756"/>
<path d="M728.017 88.9279C728.017 87.6744 728.439 86.6619 729.307 85.8664C730.162 85.083 731.151 84.6973 732.248 84.6973H745.181C746.434 84.6973 747.447 85.083 748.242 85.8664C749.026 86.6499 749.423 87.6744 749.423 88.9279L750.363 151.46C750.363 160.078 752.991 166.827 758.234 171.673C763.477 176.53 769.636 178.965 776.687 178.965C783.739 178.965 789.85 176.542 795.02 171.673C800.191 166.815 802.783 160.078 802.783 151.46L803.494 88.9279C803.494 87.6744 803.928 86.6619 804.783 85.8664C805.639 85.083 806.627 84.6973 807.724 84.6973H820.886C822.14 84.6973 823.152 85.083 823.948 85.8664C824.731 86.6499 825.129 87.6744 825.129 88.9279L825.828 154.28L825.599 194.477C825.599 195.574 825.201 196.562 824.418 197.418C823.634 198.286 822.61 198.708 821.356 198.708H807.254C806.157 198.708 805.217 198.322 804.434 197.527C803.65 196.743 803.18 195.803 803.024 194.706V188.824C797.226 196.816 788.367 200.817 776.458 200.817C765.803 200.817 756.752 198.503 749.303 193.887C741.854 189.27 736.297 183.195 732.609 175.674C728.921 168.153 727.089 160.078 727.089 151.46L728.017 88.9279Z" fill="#292756"/>
<path d="M921.94 200.106L846.487 200.817C845.547 200.817 844.764 200.468 844.137 199.756C843.51 199.045 843.197 198.226 843.197 197.286C843.197 196.189 843.354 195.405 843.667 194.935L871.871 142.757L891.385 107.731L845.077 107.02C843.98 107.02 843.04 106.634 842.257 105.838C841.473 105.055 841.076 104.115 841.076 103.018V89.6149C841.076 88.5181 841.461 87.5779 842.257 86.7944C843.04 86.011 843.98 85.6132 845.077 85.6132L921.711 84.6731C922.808 84.6731 923.664 85.0588 924.29 85.8423C924.917 86.6257 925.231 87.4935 925.231 88.4337C925.231 89.3738 925.074 90.0729 924.76 90.543L896.315 142.733L877.042 177.759L921.94 178.7C923.037 178.7 923.977 179.097 924.76 179.881C925.544 180.664 925.942 181.604 925.942 182.701V195.863C925.942 196.96 925.544 197.936 924.76 198.804C923.977 199.684 923.037 200.106 921.94 200.106Z" fill="#292756"/>
<path d="M1038.77 138.984C1038.61 142.118 1037.13 144.866 1034.3 147.217C1031.48 149.567 1028.35 150.748 1024.9 150.748H952.965C952.338 150.748 951.796 150.977 951.326 151.447C950.855 151.918 950.699 152.544 950.855 153.328C952.892 161.789 957.159 168.057 963.668 172.131C970.165 176.205 977.806 178.242 986.581 178.242C991.125 178.242 995.946 177.217 1001.03 175.18C1006.12 173.143 1010.55 170.407 1014.32 166.96C1015.1 166.176 1016.11 165.779 1017.36 165.779C1018.77 165.779 1019.79 166.176 1020.43 166.96L1029.83 176.132C1030.77 176.759 1031.24 177.772 1031.24 179.182C1031.24 180.435 1030.77 181.532 1029.83 182.472C1017.45 194.694 1002.88 200.805 986.111 200.805C975.143 200.805 965.15 198.226 956.135 193.043C947.119 187.872 940.032 180.857 934.861 171.998C929.69 163.151 927.099 153.231 927.099 142.263C927.099 138.502 927.255 135.598 927.569 133.561C928.822 123.689 932.197 115.071 937.681 107.707C943.166 100.342 950.096 94.6651 958.485 90.6635C966.862 86.6619 975.998 84.6731 985.87 84.6731C987.437 84.6731 989.787 84.8298 992.921 85.1431C1001.38 86.0833 1009.14 89.0966 1016.2 94.1951C1023.25 99.2815 1028.8 105.441 1032.89 112.648C1036.96 119.856 1039 126.835 1039 133.573L1038.77 138.984ZM964.608 112.431C958.413 117.446 954.459 123.484 952.736 130.535L952.495 131.246C952.495 131.873 952.736 132.428 953.206 132.886C953.676 133.356 954.23 133.597 954.845 133.597H1015.26C1016.04 133.597 1016.67 133.283 1017.14 132.657C1017.61 132.03 1017.68 131.319 1017.36 130.535C1015.17 123.328 1011.64 117.253 1006.78 112.323C1001.92 107.381 995.187 104.922 986.569 104.922C978.132 104.91 970.803 107.417 964.608 112.431Z" fill="#292756"/>
<defs>
<linearGradient id="paint0_linear_2808_2357" x1="127.487" y1="194.391" x2="170.558" y2="76.0552" gradientUnits="userSpaceOnUse">
<stop offset="0.2687" stop-color="#E62875"/>
<stop offset="0.3584" stop-color="#D82A7D"/>
<stop offset="0.5267" stop-color="#B42F93"/>
<stop offset="0.7556" stop-color="#7A38B6"/>
<stop offset="1" stop-color="#3542E0"/>
</linearGradient>
<linearGradient id="paint1_linear_2808_2357" x1="-0.264866" y1="197.612" x2="25.1047" y2="127.91" gradientUnits="userSpaceOnUse">
<stop offset="0.2687" stop-color="#E62875"/>
<stop offset="0.3584" stop-color="#D82A7D"/>
<stop offset="0.5267" stop-color="#B42F93"/>
<stop offset="0.7556" stop-color="#7A38B6"/>
<stop offset="1" stop-color="#3542E0"/>
</linearGradient>
<linearGradient id="paint2_linear_2808_2357" x1="90.3409" y1="173.278" x2="139.403" y2="38.4814" gradientUnits="userSpaceOnUse">
<stop offset="0.2687" stop-color="#E62875"/>
<stop offset="0.3584" stop-color="#D82A7D"/>
<stop offset="0.5267" stop-color="#B42F93"/>
<stop offset="0.7556" stop-color="#7A38B6"/>
<stop offset="1" stop-color="#3542E0"/>
</linearGradient>
<linearGradient id="paint3_linear_2808_2357" x1="22.3143" y1="166.288" x2="71.3763" y2="31.4909" gradientUnits="userSpaceOnUse">
<stop offset="0.2687" stop-color="#E62875"/>
<stop offset="0.3584" stop-color="#D82A7D"/>
<stop offset="0.5267" stop-color="#B42F93"/>
<stop offset="0.7556" stop-color="#7A38B6"/>
<stop offset="1" stop-color="#3542E0"/>
</linearGradient>
<linearGradient id="paint4_linear_2808_2357" x1="52.7504" y1="160.98" x2="108.691" y2="7.28312" gradientUnits="userSpaceOnUse">
<stop offset="0.2687" stop-color="#E62875"/>
<stop offset="0.3584" stop-color="#D82A7D"/>
<stop offset="0.5267" stop-color="#B42F93"/>
<stop offset="0.7556" stop-color="#7A38B6"/>
<stop offset="1" stop-color="#3542E0"/>
</linearGradient>
</defs>
</svg>
