<svg width="112" height="139" viewBox="0 0 112 139" fill="none" xmlns="http://www.w3.org/2000/svg">
<path d="M108.029 49.2864H98.3474C96.3175 49.2864 94.6802 50.8736 94.6802 52.8199V134.619C94.6802 136.574 96.3258 138.152 98.3474 138.152H108.029C110.059 138.152 111.697 136.565 111.697 134.619V52.8283C111.697 50.8652 110.051 49.2864 108.029 49.2864Z" fill="url(#paint0_linear_3883_1545)"/>
<path d="M13.3491 87.4543H3.66725C1.63731 87.4543 0 89.0416 0 90.988V134.619C0 136.574 1.64567 138.153 3.66725 138.153H13.3491C15.379 138.153 17.0164 136.565 17.0164 134.619V90.9963C17.0164 89.0416 15.379 87.4543 13.3491 87.4543Z" fill="url(#paint1_linear_3883_1545)"/>
<path d="M84.355 22.488H74.6731C72.6432 22.488 71.0059 24.0752 71.0059 26.0216V120.735C71.0059 122.69 72.6515 124.269 74.6731 124.269H84.355C86.3849 124.269 88.0222 122.682 88.0222 120.735V26.0216C88.0222 24.0752 86.3849 22.488 84.355 22.488Z" fill="url(#paint2_linear_3883_1545)"/>
<path d="M37.207 17.6428H27.5252C25.5036 17.6428 23.8579 19.23 23.8579 21.1764V115.89C23.8579 117.845 25.5036 119.424 27.5252 119.424H37.207C39.2286 119.424 40.8743 117.836 40.8743 115.89V21.1764C40.8743 19.23 39.237 17.6428 37.207 17.6428Z" fill="url(#paint3_linear_3883_1545)"/>
<path d="M60.6894 0H51.0076C48.986 0 47.3403 1.58717 47.3403 3.53357V113.083C47.3403 115.038 48.986 116.617 51.0076 116.617H60.6894C62.711 116.617 64.3567 115.03 64.3567 113.083V3.53357C64.3567 1.57882 62.711 0 60.6894 0Z" fill="url(#paint4_linear_3883_1545)"/>
<defs>
<linearGradient id="paint0_linear_3883_1545" x1="88.2603" y1="134.726" x2="118.111" y2="52.7113" gradientUnits="userSpaceOnUse">
<stop offset="0.2687" stop-color="#E62875"/>
<stop offset="0.3584" stop-color="#D82A7D"/>
<stop offset="0.5267" stop-color="#B42F93"/>
<stop offset="0.7556" stop-color="#7A38B6"/>
<stop offset="1" stop-color="#3542E0"/>
</linearGradient>
<linearGradient id="paint1_linear_3883_1545" x1="-0.280599" y1="136.959" x2="17.3022" y2="88.6505" gradientUnits="userSpaceOnUse">
<stop offset="0.2687" stop-color="#E62875"/>
<stop offset="0.3584" stop-color="#D82A7D"/>
<stop offset="0.5267" stop-color="#B42F93"/>
<stop offset="0.7556" stop-color="#7A38B6"/>
<stop offset="1" stop-color="#3542E0"/>
</linearGradient>
<linearGradient id="paint2_linear_3883_1545" x1="62.5152" y1="120.094" x2="96.5185" y2="26.6703" gradientUnits="userSpaceOnUse">
<stop offset="0.2687" stop-color="#E62875"/>
<stop offset="0.3584" stop-color="#D82A7D"/>
<stop offset="0.5267" stop-color="#B42F93"/>
<stop offset="0.7556" stop-color="#7A38B6"/>
<stop offset="1" stop-color="#3542E0"/>
</linearGradient>
<linearGradient id="paint3_linear_3883_1545" x1="15.3682" y1="115.249" x2="49.3715" y2="21.8252" gradientUnits="userSpaceOnUse">
<stop offset="0.2687" stop-color="#E62875"/>
<stop offset="0.3584" stop-color="#D82A7D"/>
<stop offset="0.5267" stop-color="#B42F93"/>
<stop offset="0.7556" stop-color="#7A38B6"/>
<stop offset="1" stop-color="#3542E0"/>
</linearGradient>
<linearGradient id="paint4_linear_3883_1545" x1="36.4628" y1="111.57" x2="75.2336" y2="5.04769" gradientUnits="userSpaceOnUse">
<stop offset="0.2687" stop-color="#E62875"/>
<stop offset="0.3584" stop-color="#D82A7D"/>
<stop offset="0.5267" stop-color="#B42F93"/>
<stop offset="0.7556" stop-color="#7A38B6"/>
<stop offset="1" stop-color="#3542E0"/>
</linearGradient>
</defs>
</svg>
