<svg width="1039" height="262" viewBox="0 0 1039 262" fill="none" xmlns="http://www.w3.org/2000/svg">
<path d="M156.011 71.2585H142.042C139.113 71.2585 136.75 73.5486 136.75 76.357V194.381C136.75 197.202 139.125 199.48 142.042 199.48H156.011C158.94 199.48 161.303 197.19 161.303 194.381V76.3691C161.303 73.5366 158.928 71.2585 156.011 71.2585Z" fill="white"/>
<path d="M19.4009 126.329H5.43133C2.50241 126.329 0.139999 128.619 0.139999 131.428V194.381C0.139999 197.202 2.51447 199.48 5.43133 199.48H19.4009C22.3298 199.48 24.6922 197.19 24.6922 194.381V131.44C24.6922 128.619 22.3298 126.329 19.4009 126.329Z" fill="white"/>
<path d="M121.853 32.592H107.883C104.954 32.592 102.592 34.8822 102.592 37.6905V174.349C102.592 177.169 104.966 179.447 107.883 179.447H121.853C124.781 179.447 127.144 177.157 127.144 174.349V37.6905C127.144 34.8822 124.781 32.592 121.853 32.592Z" fill="white"/>
<path d="M53.8247 25.6013H39.8551C36.9382 25.6013 34.5638 27.8914 34.5638 30.6998V167.358C34.5638 170.179 36.9382 172.457 39.8551 172.457H53.8247C56.7415 172.457 59.116 170.167 59.116 167.358V30.6998C59.116 27.8914 56.7536 25.6013 53.8247 25.6013Z" fill="white"/>
<path d="M87.706 0.14502H73.7365C70.8196 0.14502 68.4451 2.43509 68.4451 5.24347V163.308C68.4451 166.129 70.8196 168.407 73.7365 168.407H87.706C90.6229 168.407 92.9974 166.117 92.9974 163.308V5.24347C92.9974 2.42304 90.6229 0.14502 87.706 0.14502Z" fill="white"/>
<path d="M197.233 111.395C197.233 96.9799 197.39 81.9375 197.703 66.2564C198.016 50.5873 198.257 40.4024 198.414 35.7017C198.414 34.4482 198.92 33.3513 199.945 32.4112C200.969 31.471 202.102 31.001 203.356 31.001H215.819C217.072 31.001 218.169 31.471 219.109 32.4112C220.05 33.3513 220.52 34.4482 220.52 35.7017L220.761 99.6436C220.761 99.957 220.917 100.198 221.231 100.355C221.544 100.511 221.858 100.439 222.171 100.114C225.461 95.7263 230.355 92.0863 236.864 89.1815C243.36 86.2887 249.676 84.8303 255.787 84.8303C266.285 84.8303 275.964 87.4579 284.811 92.701C293.658 97.9562 300.673 105.007 305.856 113.854C311.027 122.713 313.618 132.392 313.618 142.89C313.618 153.389 311.039 163.103 305.856 172.035C300.685 180.966 293.67 188.017 284.811 193.188C275.952 198.359 266.273 200.95 255.787 200.95C245.59 200.95 236.153 198.479 227.462 193.55C218.76 188.62 211.793 181.954 206.538 173.565C201.283 165.189 198.426 155.896 197.956 145.711C197.474 137.261 197.233 125.823 197.233 111.395ZM238.37 112.926C233.043 115.976 228.848 120.17 225.799 125.498C222.737 130.825 221.219 136.623 221.219 142.89C221.219 149.158 222.786 154.919 225.919 160.162C229.053 165.418 233.248 169.6 238.491 172.734C243.734 175.868 249.495 177.435 255.775 177.435C261.886 177.435 267.563 175.868 272.818 172.734C278.061 169.6 282.256 165.405 285.39 160.162C288.523 154.919 290.09 149.158 290.09 142.89C290.09 136.623 288.523 130.861 285.39 125.606C282.256 120.363 278.061 116.168 272.818 113.035C267.563 109.901 261.814 108.334 255.546 108.334C249.423 108.346 243.698 109.865 238.37 112.926Z" fill="white"/>
<path d="M433.474 139.13C433.318 142.263 431.835 145.011 429.003 147.362C426.182 149.712 423.048 150.893 419.601 150.893H347.668C347.041 150.893 346.499 151.122 346.029 151.592C345.559 152.063 345.402 152.689 345.559 153.473C347.596 161.934 351.863 168.202 358.371 172.276C364.868 176.35 372.51 178.387 381.284 178.387C385.828 178.387 390.65 177.362 395.736 175.325C400.822 173.288 405.258 170.552 409.019 167.105C409.802 166.321 410.815 165.924 412.068 165.924C413.478 165.924 414.491 166.321 415.13 167.105L424.531 176.277C425.471 176.904 425.941 177.917 425.941 179.327C425.941 180.58 425.471 181.677 424.531 182.617C412.152 194.839 397.58 200.95 380.814 200.95C369.846 200.95 359.854 198.371 350.838 193.188C341.822 188.017 334.735 181.002 329.564 172.143C324.394 163.296 321.802 153.376 321.802 142.408C321.802 138.647 321.959 135.743 322.272 133.706C323.526 123.834 326.901 115.216 332.385 107.852C337.869 100.487 344.799 94.8102 353.188 90.8085C361.565 86.8069 370.702 84.8181 380.573 84.8181C382.14 84.8181 384.49 84.9748 387.624 85.2882C396.086 86.2283 403.848 89.2416 410.899 94.3401C417.95 99.4265 423.506 105.586 427.593 112.793C431.666 120.001 433.703 126.98 433.703 133.718L433.474 139.13ZM359.311 112.576C353.116 117.591 349.163 123.629 347.439 130.68L347.198 131.391C347.198 132.018 347.439 132.573 347.909 133.031C348.379 133.501 348.934 133.742 349.548 133.742H409.959C410.742 133.742 411.369 133.428 411.839 132.802C412.309 132.175 412.381 131.464 412.068 130.68C409.874 123.473 406.343 117.398 401.485 112.468C396.628 107.526 389.89 105.067 381.272 105.067C372.835 105.055 365.507 107.562 359.311 112.576Z" fill="white"/>
<path d="M442.406 221.646C442.092 203.626 441.936 186.86 441.936 171.336C441.936 160.837 442.092 150.411 442.406 140.07C442.876 129.885 445.732 120.604 450.988 112.215C456.231 103.838 463.21 97.1728 471.912 92.231C480.614 87.3012 490.052 84.8303 500.237 84.8303C510.735 84.8303 520.414 87.4579 529.273 92.7011C538.12 97.9562 545.135 105.007 550.306 113.854C555.476 122.713 558.068 132.392 558.068 142.89C558.068 153.389 555.476 163.067 550.306 171.914C545.135 180.773 538.12 187.824 529.273 193.067C520.414 198.323 510.735 200.938 500.237 200.938C494.126 200.938 487.774 199.444 481.193 196.466C474.612 193.489 469.754 189.886 466.621 185.655C466.464 185.341 466.223 185.221 465.909 185.305C465.596 185.39 465.439 185.583 465.439 185.896L464.969 256.648C464.969 257.901 464.499 258.998 463.559 259.938C462.619 260.878 461.522 261.349 460.269 261.349H447.806C446.552 261.349 445.455 260.878 444.515 259.938C443.575 258.998 443.105 257.901 443.105 256.648C442.96 251.344 442.719 239.665 442.406 221.646ZM470.381 160.174C473.515 165.43 477.709 169.612 482.953 172.746C488.196 175.88 493.957 177.447 500.225 177.447C506.492 177.447 512.254 175.88 517.497 172.746C522.74 169.612 526.934 165.418 530.068 160.174C533.202 154.931 534.769 149.17 534.769 142.902C534.769 136.635 533.202 130.837 530.068 125.51C526.934 120.182 522.74 115.988 517.497 112.938C512.242 109.877 506.492 108.358 500.225 108.358C493.957 108.358 488.196 109.925 482.953 113.059C477.697 116.193 473.515 120.387 470.381 125.63C467.247 130.885 465.68 136.647 465.68 142.914C465.68 149.182 467.247 154.931 470.381 160.174Z" fill="white"/>
<path d="M587.682 25.6011C588.466 26.3846 588.864 27.3247 588.864 28.4216L589.575 66.0394V159.126L588.864 196.973C588.864 198.07 588.466 199.01 587.682 199.793C586.899 200.577 585.959 200.974 584.862 200.974H570.989C569.892 200.974 568.952 200.589 568.168 199.793C567.385 199.01 566.987 198.07 566.987 196.973L566.276 159.126V66.0394L566.987 28.4216C566.987 27.3247 567.373 26.3846 568.168 25.6011C568.952 24.8177 569.892 24.4199 570.989 24.4199H584.862C585.959 24.4199 586.899 24.8177 587.682 25.6011Z" fill="white"/>
<path d="M719.086 164.285C719.086 172.119 718.929 179.014 718.615 184.968C718.302 190.922 718.061 194.683 717.904 196.25C717.904 197.503 717.434 198.6 716.494 199.54C715.554 200.48 714.385 200.95 712.975 200.95H700.512C699.415 200.95 698.39 200.48 697.45 199.54C696.51 198.6 695.956 197.503 695.811 196.25L695.57 185.908C695.57 185.595 695.449 185.354 695.22 185.197C694.991 185.04 694.714 185.125 694.401 185.426C691.267 189.813 686.41 193.501 679.828 196.479C673.247 199.456 666.895 200.95 660.785 200.95C650.286 200.95 640.571 198.371 631.64 193.188C622.709 188.017 615.658 180.966 610.487 172.035C605.316 163.103 602.725 153.389 602.725 142.89C602.725 132.392 605.304 122.713 610.487 113.854C615.658 105.007 622.709 97.9562 631.64 92.7011C640.571 87.4579 650.286 84.8303 660.785 84.8303C670.969 84.8303 680.371 87.3012 688.989 92.231C697.607 97.1728 704.537 103.826 709.793 112.215C715.036 120.604 717.904 129.885 718.374 140.07C718.845 148.7 719.086 156.763 719.086 164.285ZM678.069 172.758C683.312 169.624 687.47 165.394 690.532 160.066C693.593 154.739 695.112 148.941 695.112 142.673C695.112 136.406 693.545 130.644 690.411 125.401C687.277 120.158 683.083 116 677.84 112.938C672.585 109.877 666.823 108.358 660.556 108.358C654.445 108.358 648.768 109.925 643.512 113.059C638.257 116.193 634.075 120.387 630.941 125.63C627.807 130.885 626.24 136.647 626.24 142.914C626.24 149.182 627.807 154.943 630.941 160.187C634.075 165.442 638.269 169.624 643.512 172.758C648.755 175.892 654.517 177.459 660.785 177.459C667.052 177.459 672.814 175.892 678.069 172.758Z" fill="white"/>
<path d="M728.017 89.0729C728.017 87.8194 728.439 86.8069 729.307 86.0114C730.162 85.228 731.151 84.8423 732.248 84.8423H745.181C746.434 84.8423 747.447 85.228 748.242 86.0114C749.026 86.7949 749.423 87.8194 749.423 89.0729L750.363 151.605C750.363 160.223 752.991 166.972 758.234 171.818C763.477 176.675 769.636 179.11 776.687 179.11C783.739 179.11 789.85 176.687 795.02 171.818C800.191 166.96 802.783 160.223 802.783 151.605L803.494 89.0729C803.494 87.8194 803.928 86.8069 804.783 86.0114C805.639 85.228 806.627 84.8423 807.724 84.8423H820.886C822.14 84.8423 823.152 85.228 823.948 86.0114C824.731 86.7949 825.129 87.8194 825.129 89.0729L825.828 154.425L825.599 194.622C825.599 195.719 825.201 196.707 824.418 197.563C823.634 198.431 822.61 198.853 821.356 198.853H807.254C806.157 198.853 805.217 198.467 804.434 197.672C803.65 196.888 803.18 195.948 803.024 194.851V188.969C797.226 196.961 788.367 200.962 776.458 200.962C765.803 200.962 756.752 198.648 749.303 194.032C741.854 189.415 736.297 183.34 732.609 175.819C728.921 168.298 727.089 160.223 727.089 151.605L728.017 89.0729Z" fill="white"/>
<path d="M921.94 200.251L846.487 200.962C845.547 200.962 844.764 200.613 844.137 199.901C843.51 199.19 843.197 198.371 843.197 197.431C843.197 196.334 843.354 195.55 843.667 195.08L871.871 142.902L891.385 107.876L845.077 107.165C843.98 107.165 843.04 106.779 842.257 105.983C841.473 105.2 841.076 104.26 841.076 103.163V89.7599C841.076 88.6631 841.461 87.7229 842.257 86.9394C843.04 86.156 843.98 85.7583 845.077 85.7583L921.711 84.8181C922.808 84.8181 923.664 85.2038 924.29 85.9873C924.917 86.7707 925.231 87.6385 925.231 88.5787C925.231 89.5188 925.074 90.2179 924.76 90.688L896.315 142.878L877.042 177.905L921.94 178.845C923.037 178.845 923.977 179.242 924.76 180.026C925.544 180.809 925.942 181.749 925.942 182.846V196.008C925.942 197.105 925.544 198.081 924.76 198.949C923.977 199.829 923.037 200.251 921.94 200.251Z" fill="white"/>
<path d="M1038.77 139.13C1038.61 142.263 1037.13 145.011 1034.3 147.362C1031.48 149.712 1028.35 150.893 1024.9 150.893H952.965C952.338 150.893 951.796 151.122 951.326 151.592C950.855 152.063 950.699 152.689 950.855 153.473C952.892 161.934 957.159 168.202 963.668 172.276C970.165 176.35 977.806 178.387 986.581 178.387C991.125 178.387 995.946 177.362 1001.03 175.325C1006.12 173.288 1010.55 170.552 1014.32 167.105C1015.1 166.321 1016.11 165.924 1017.36 165.924C1018.77 165.924 1019.79 166.321 1020.43 167.105L1029.83 176.277C1030.77 176.904 1031.24 177.917 1031.24 179.327C1031.24 180.58 1030.77 181.677 1029.83 182.617C1017.45 194.839 1002.88 200.95 986.111 200.95C975.143 200.95 965.15 198.371 956.135 193.188C947.119 188.017 940.032 181.002 934.861 172.143C929.69 163.296 927.099 153.376 927.099 142.408C927.099 138.647 927.255 135.743 927.569 133.706C928.822 123.834 932.197 115.216 937.681 107.852C943.166 100.487 950.096 94.8102 958.485 90.8085C966.862 86.8069 975.998 84.8181 985.87 84.8181C987.437 84.8181 989.787 84.9748 992.921 85.2882C1001.38 86.2283 1009.14 89.2416 1016.2 94.3401C1023.25 99.4265 1028.8 105.586 1032.89 112.793C1036.96 120.001 1039 126.98 1039 133.718L1038.77 139.13ZM964.608 112.576C958.413 117.591 954.459 123.629 952.736 130.68L952.495 131.391C952.495 132.018 952.736 132.573 953.206 133.031C953.676 133.501 954.23 133.742 954.845 133.742H1015.26C1016.04 133.742 1016.67 133.428 1017.14 132.802C1017.61 132.175 1017.68 131.464 1017.36 130.68C1015.17 123.473 1011.64 117.398 1006.78 112.468C1001.92 107.526 995.187 105.067 986.569 105.067C978.132 105.055 970.803 107.562 964.608 112.576Z" fill="white"/>
</svg>
